# ProBuilder 5.0.6
# https://unity3d.com/unity/features/worldbuilding/probuilder
# 2/4/2023 11:11:13 PM

mtllib ./LargeRoot.mtl
o LargeRoot

g Merged
v -0.005 -0.01 0
v 2.185569E-10 -0.01 0.005
v 0 0.01 0
v 0 -0.01 0
v 0.005 -0.01 -4.371139E-10
v -5.96244E-11 -0.01 -0.005
v 0.02578864 0.01458987 0.1097898
v 0.05483735 0.04111338 0.2017282
v 0.02681703 0.004950717 0.1122457
v 0.05586575 0.03147422 0.2041841
v 0.03557022 0.0003320202 0.1108125
v 0.06461893 0.02685553 0.2027509
v 0.043295 0.005352482 0.1069234
v 0.07234371 0.03187598 0.1988618
v 0.04226661 0.01499163 0.1044675
v 0.07131533 0.04151514 0.196406
v 0.03351343 0.01961032 0.1059007
v 0.06256214 0.04613383 0.1978391
v -0.03368046 -0.0372257 -0.08699894
v -0.02492728 -0.0418444 -0.08843213
v -0.03265207 -0.04686484 -0.08454305
v 0.1117991 0.08474225 0.3725979
v 0.1205523 0.08012357 0.3711647
v -0.02389888 -0.05148354 -0.08597624
v -0.01617409 -0.04646309 -0.0898653
v 0.1282771 0.08514401 0.3672757
v -0.01720249 -0.03682394 -0.09232119
v 0.1272487 0.09478319 0.3648198
v -0.02595567 -0.03220524 -0.09088801
v 0.1184955 0.09940186 0.366253
v 0.1195239 0.08976269 0.3687088
v 0.1107707 0.09438139 0.370142
v 0.08502895 0.05256417 0.2586685
v 0.09275374 0.05758463 0.2547795
v 0.1015069 0.05296592 0.2533463
v 0.1025353 0.04332677 0.2558022
v 0.09481052 0.03830631 0.2596912
v 0.08605734 0.04292502 0.2611244
v 0.09688402 0.08305758 0.3150645
v 0.1046088 0.08807802 0.3111754
v 0.113362 0.08345932 0.3097423
v 0.1143904 0.07382017 0.3121982
v 0.1066656 0.0687997 0.3160872
v 0.09791241 0.07341841 0.3175204
v -0.006485372 0.002557047 0.04095536
v -0.005456978 -0.007082105 0.04341124
v 0.001239417 0.007577501 0.03706628
v 0.0099926 0.002958808 0.0356331
v 0.01102099 -0.006680343 0.03808899
v 0.003296206 -0.0117008 0.04197806
v -0.01397939 -0.01923724 -0.02464554
v -0.01295099 -0.02887638 -0.02218966
v -0.006254599 -0.01421678 -0.02853462
v 0.002498584 -0.01883548 -0.0299678
v 0.003526977 -0.02847463 -0.02751191
v -0.004197811 -0.03349508 -0.02362284
v 0.06617718 0.03228374 0.1818385
v 0.06281193 0.03109737 0.187943
v 0.08039053 0.02095547 0.1915669
v 0.06357955 0.02846806 0.18376
v 0.06098192 0.02465238 0.1856815
v 0.06434716 0.02583876 0.179577
v 0.07615221 0.04984358 0.2317106
v 0.08158102 0.04918198 0.2361927
v 0.08525731 0.06813423 0.2289607
v 0.08100358 0.0487261 0.2312471
v 0.08585475 0.04760821 0.2307838
v 0.08042593 0.04826979 0.2263017
v 0.09349839 0.04235932 0.2610711
v 0.09294291 0.04889138 0.263721
v 0.08327655 0.0382487 0.2784955
v 0.08989602 0.04582383 0.2612099
v 0.08629323 0.04928853 0.2613486
v 0.08684915 0.04275624 0.2586987
v 0.1054046 0.07487084 0.2925666
v 0.1056412 0.06924775 0.296848
v 0.1256033 0.07439394 0.2966635
v 0.1066406 0.07005709 0.292016
v 0.1078763 0.06524356 0.2914654
v 0.1076395 0.07086624 0.2871842
v 0.1058065 0.08494034 0.3379717
v 0.1094961 0.09038097 0.3405768
v 0.09295388 0.1004138 0.3334561
v 0.108779 0.08845508 0.3360185
v 0.1117508 0.09196964 0.3340656
v 0.1080613 0.08652902 0.3314606
v 0.0490476 0.01534759 0.1598108
v 0.0456787 0.01910347 0.1647651
v 0.03070705 0.005938306 0.1595187
v 0.04575501 0.0191104 0.1597656
v 0.04246224 0.02287281 0.1597205
v 0.04583114 0.01911694 0.1547662
v 0.03263969 0.01742525 0.1076061
v 0.03775769 0.01498712 0.1118327
v 0.04622167 0.0328472 0.1059692
v 0.03701628 0.01511589 0.1068895
v 0.04139287 0.01280655 0.1061729
v 0.03627469 0.01524428 0.1019465
v 0.01330355 0.002579018 0.07885852
v 0.01491414 0.009135246 0.0809619
v -0.004025577 0.01237102 0.0734906
v 0.01491174 0.006728455 0.07657925
v 0.01652012 0.01087829 0.0742998
v 0.01490952 0.004322067 0.07219645
v 0.009556273 -0.007077865 0.02921651
v 0.005449358 -0.006287444 0.03491805
v 0.01831613 -0.02084201 0.04181884
v 0.00568686 -0.009577377 0.03116018
v 0.001817029 -0.01207667 0.03310391
v 0.005923941 -0.01286709 0.02740236
v -0.006650693 -0.02853688 -0.01600039
v -0.005441611 -0.02203789 -0.01348976
v -0.0210108 -0.02772425 -0.001231011
v -0.008776894 -0.02405423 -0.0166218
v -0.01090328 -0.019572 -0.01724304
v -0.01211218 -0.02607059 -0.01975384
v -0.01640888 -0.02471272 -0.05616131
v -0.01100814 -0.02659392 -0.05200268
v -0.003271062 -0.009365797 -0.0602692
v -0.01203229 -0.02702207 -0.0568779
v -0.007655702 -0.02933142 -0.05759449
v -0.01305645 -0.02745023 -0.06175313
v 0.0512995 0.0332725 0.1778402
v 0.05648894 0.03552757 0.1820813
v 0.04853733 0.05364268 0.1762843
v 0.0559113 0.03507128 0.1771359
v 0.06052327 0.03687043 0.1764313
v 0.05533384 0.03461537 0.1721903
v 0.1000431 0.06665686 0.3018769
v 0.09819739 0.07266721 0.3051124
v 0.08054931 0.06215388 0.3068481
v 0.0974801 0.07074094 0.3005544
v 0.09491671 0.07482523 0.299232
v 0.0967624 0.06881489 0.2959965

vt 0 0
vt 0.01414214 9.313226E-10
vt 0.007071068 0.0212132
vt -0.005 0
vt 2.185569E-10 0.005
vt 0.005 -4.371139E-10
vt -5.96244E-11 -0.005
vt -0.00500007 -0.04999998
vt -0.00500001 0.04999997
vt 0.00500001 -0.04999997
vt 0.005000085 0.04999998
vt -0.00991916 -0.00524186
vt 8.106581E-05 -0.005241867
vt -0.004919043 0.003418448
vt 0.004780293 0.003645438
vt -0.005219937 0.003645421
vt 0.005081186 0.003418442
vt 0.01008129 -0.005241876
vt -0.01022006 -0.005014881
vt 0.005081167 -0.01390219
vt -0.005219922 -0.01367522
vt -0.004919061 -0.01390218
vt 0.004780299 -0.01367521
vt 0.009780401 -0.005014885
vt 0.00500001 0.04782106
vt -0.005000062 0.04782104
vt -0.001926459 0.1129123
vt -0.01192654 0.1129123
vt 0.004999999 0.05006668
vt -0.005000189 0.05006668
vt -0.007977534 0.1142261
vt -0.01797771 0.1142261
vt 0.004999995 0.05074362
vt -0.005000055 0.05074364
vt -0.001051128 0.1159222
vt -0.01105118 0.1159222
vt 0.01797771 0.1140896
vt 0.007977534 0.1140897
vt 0.005000114 0.05074438
vt 0.01192664 0.1158357
vt 0.001926526 0.1158357
vt 0.01105115 0.1128683
vt 0.001051009 0.1128684
vt -0.00192643 0.1105206
vt -0.01192656 0.1105207
vt -0.004460439 0.1756703
vt -0.01446056 0.1756703
vt 0.003811836 0.1783502
vt -0.006188571 0.1783503
vt -0.001051217 0.112061
vt -0.01105133 0.112061
vt 0.01327226 0.1756671
vt 0.003272176 0.1756672
vt 0.01797771 0.1115971
vt 0.007977568 0.1115971
vt 0.006188288 0.1757214
vt -0.003811836 0.1757214
vt 0.01192675 0.1065124
vt 0.001926668 0.1065124
vt 0.01446082 0.1716621
vt 0.004460685 0.1716621
vt 0.01105109 0.1135161
vt 0.001051009 0.1135161
vt -0.003272384 0.1771222
vt -0.01327249 0.1771222
vt -0.004460439 0.1770631
vt -0.01446059 0.1770632
vt 0.0005473197 0.2347651
vt -0.009452835 0.2347652
vt 0.003811829 0.1751106
vt -0.006188266 0.1751105
vt 0.004780143 0.2330214
vt -0.005219936 0.2330213
vt 0.01327229 0.1763376
vt 0.003272146 0.1763376
vt 0.009233028 0.2341154
vt -0.0007671416 0.2341154
vt 0.006188348 0.1766728
vt -0.003811836 0.1766728
vt 0.005219944 0.2345836
vt -0.00478024 0.2345836
vt 0.01446083 0.1775954
vt 0.004460692 0.1775954
vt 0.009453073 0.2352974
vt -0.0005470067 0.2352973
vt 0.000766784 0.2351498
vt -0.009233266 0.2351497
vt -0.005000062 -0.05069843
vt 0.005000055 -0.05069843
vt -0.01362541 -0.1271849
vt -0.003625304 -0.1271849
vt -0.0007982943 -0.1275986
vt 0.009201806 -0.1275986
vt -0.005000003 -0.05026311
vt 0.005000209 -0.05026311
vt 0.007826826 -0.1261581
vt 0.01782703 -0.1261581
vt -0.00500007 -0.04847211
vt 0.005000062 -0.04847211
vt 0.003625177 -0.1249586
vt 0.01362532 -0.1249585
vt -0.005000056 -0.04795092
vt 0.005000008 -0.04795094
vt -0.009201693 -0.1248074
vt 0.0007983707 -0.1248074
vt -0.01782703 -0.1255752
vt -0.007826818 -0.1255752
vt -0.01362548 -0.1204505
vt -0.00362538 -0.1204505
vt -0.009499199 -0.1898595
vt 0.0005008914 -0.1898595
vt -0.0007981695 -0.1215654
vt 0.009201946 -0.1215654
vt -0.009580052 -0.19054
vt 0.0004200619 -0.1905401
vt -0.005081177 -0.1945186
vt 0.004919072 -0.1945186
vt 0.003625131 -0.1235755
vt 0.01362525 -0.1235755
vt -0.0005011307 -0.1929845
vt 0.009498984 -0.1929845
vt -0.009201706 -0.124035
vt 0.000798407 -0.124035
vt -0.000419829 -0.1930097
vt 0.009580282 -0.1930097
vt -0.004919088 -0.1938372
vt 0.005081179 -0.1938372
vt -0.009499222 -0.194122
vt 0.0005008876 -0.194122
vt -0.009499207 -0.2619428
vt 0.0005009025 -0.2619428
vt -0.009580046 -0.194122
vt 0.0004200637 -0.194122
vt -0.00958005 -0.2619428
vt 0.0004200637 -0.2619428
vt -0.005081177 -0.194122
vt 0.00491904 -0.194122
vt -0.005081167 -0.2619428
vt 0.004919052 -0.2619428
vt -0.0005011261 -0.194122
vt 0.009498976 -0.194122
vt -0.0005011261 -0.2619428
vt 0.009498984 -0.2619428
vt 0.009580281 -0.1941219
vt 0.009580275 -0.2619428
vt -0.004919045 -0.194122
vt 0.005081177 -0.194122
vt -0.004919052 -0.2619428
vt 0.005081171 -0.2619428
vt -0.006168053 0.0008048862
vt -0.001168072 0.005804904
vt -0.001168087 0.0008048192
vt 0.0008048266 0.006168038
vt 0.005804807 0.00116802
vt 0.0008049011 0.001167998
vt 0.006168053 -0.0008048639
vt 0.001168102 -0.005804881
vt 0.001168102 -0.0008048117
vt -0.0008048564 -0.006168045
vt -0.005804837 -0.001168028
vt -0.0008049011 -0.001168013
vt -0.005021758 0.0002322644
vt -2.17557E-05 0.005232215
vt 0.005232237 2.17557E-05
vt -0.006098613 0.001240797
vt -0.001098618 0.0062408
vt -0.001098633 0.001240782
vt 0.00124079 0.006098561
vt 0.006240785 0.001098573
vt 0.001240581 0.001098789
vt 0.006098762 -0.00124082
vt 0.001098752 -0.006240815
vt 0.001098573 -0.001240999
vt -0.001240805 -0.006098643
vt -0.0062408 -0.001098655
vt -0.00124082 -0.001098618
vt -0.005577505 0.001053765
vt -0.0005774498 0.006053656
vt -0.0005771816 0.00105378
vt 0.001053482 0.005577326
vt 0.006053597 0.0005774051
vt 0.001053661 0.0005772859
vt 0.005577296 -0.001053497
vt 0.0005773306 -0.006053552
vt 0.0005774498 -0.001053467
vt -0.001053631 -0.005577371
vt -0.006053597 -0.0005773157
vt -0.001053423 -0.0005775988
vt -0.005420702 0.0009352434
vt -0.0004207361 0.005935319
vt -0.0004206803 0.0009353422
vt 0.0009353328 0.005420767
vt 0.005935358 0.000420779
vt 0.0009353952 0.0004206914
vt 0.005420733 -0.000935331
vt 0.0004207194 -0.005935304
vt 0.0004208144 -0.0009352621
vt -0.000935344 -0.005420713
vt -0.005935268 -0.0004206784
vt -0.0009352472 -0.0004207268

vn -0.9701425 0.2425356 0
vn 4.152242E-08 0.2425356 0.9701425
vn 0 1 0
vn 0 -1 0
vn 0.9701425 0.2425356 -4.152242E-08
vn -4.152242E-08 0.2425356 -0.9701425
vn -0.8752982 0.461859 0.143315
vn -0.7724645 -0.5020484 0.3889035
vn 0.1028289 -0.9639047 0.2455892
vn 0.8752983 -0.4618589 -0.1433152
vn 0.7724646 0.5020483 -0.3889036
vn -0.1028286 0.9639047 -0.2455893
vn -0.2904873 -0.2652348 -0.9193844
vn 0.2904861 0.2652344 0.9193849
vn -0.5075881 0.8561255 0.09697129
vn 0.3843128 0.8442512 -0.3735555
vn 0.8852181 -0.02391864 -0.464561
vn -0.384313 -0.8442512 0.3735553
vn 0.5075881 -0.8561255 -0.09697144
vn -0.885218 0.02391868 0.464561
vn -0.6166115 0.7394468 -0.2702015
vn 0.3380463 0.7963032 -0.5016235
vn 0.9723771 0.04540747 -0.2289564
vn -0.338045 -0.7963037 0.5016233
vn 0.6166112 -0.7394469 0.2702016
vn -0.9723769 -0.04540812 0.2289568
vn -0.5555252 0.8309301 -0.03077279
vn 0.4112399 0.8668394 -0.2819065
vn 0.9669861 0.03900708 -0.251826
vn -0.4112397 -0.8668393 0.2819072
vn 0.5555266 -0.8309291 0.03077267
vn -0.9669862 -0.03900556 0.2518257
vn -0.9061065 0.011077 0.4229047
vn -0.5105256 0.8551522 0.08987972
vn 0.3961701 0.8548127 -0.3351783
vn 0.9061065 -0.01107716 -0.4229046
vn 0.5105262 -0.8551518 -0.08988008
vn -0.39617 -0.8548128 0.3351783
vn -0.9881343 -0.0706805 0.1363629
vn -0.6003671 0.7769399 -0.1895353
vn 0.3977425 0.8561463 -0.3298702
vn 0.9881343 0.07068036 -0.1363628
vn 0.6003671 -0.77694 0.1895353
vn -0.3977425 -0.8561463 0.3298702
vn -0.9513367 -0.02320839 0.3072781
vn -0.5647187 0.8231683 -0.05904997
vn 0.3866139 0.8463666 -0.3663239
vn 0.9513367 0.02320823 -0.3072781
vn 0.5647184 -0.8231685 0.0590501
vn -0.386614 -0.8463666 0.3663239
vn 0.7078719 0.6492543 -0.2781839
vn 0.05492248 0.419038 0.906306
vn 0.8405485 -0.3756382 0.3903514
vn -0.8405426 0.3756408 -0.3903616
vn -0.3001469 -0.8314614 0.4675294
vn 0.3528058 -0.6012502 -0.7169563
vn -0.8897194 0.4522521 0.06218796
vn 0.1636307 0.3238454 0.9318525
vn 0.2126704 0.9704127 -0.1143258
vn -0.2126156 -0.9704303 0.1142793
vn 0.9928845 0.01845043 -0.1176431
vn -0.06047158 0.1468677 -0.987306
vn 0.6187026 -0.7640865 0.1826989
vn 0.5109313 0.5033317 0.6968547
vn -0.3309206 -0.3788462 0.8642726
vn 0.3309864 0.3787662 -0.8642824
vn -0.7792599 0.5803427 0.2365512
vn -0.6714433 -0.687091 -0.2776147
vn -0.009805119 0.9865476 0.1631802
vn 0.03610859 -0.1044319 0.9938763
vn 0.9481734 0.2167939 0.2323094
vn -0.9481253 -0.2168708 -0.2324338
vn 0.4697464 -0.8813566 -0.05048645
vn 0.423821 0.2095889 -0.8811631
vn -0.7685946 -0.5369026 0.3478476
vn -0.05270376 0.5187272 0.8533138
vn -0.7912427 0.5979291 -0.1281245
vn 0.7912324 -0.5979366 0.1281527
vn 0.3847849 0.8269469 -0.4099995
vn -0.3311039 -0.2286896 -0.9154623
vn 0.456385 -0.8897638 0.005761705
vn -0.1972691 -0.1610321 0.9670333
vn -0.7524028 -0.6585875 -0.01235389
vn 0.7524328 0.6585523 0.01239836
vn -0.8213583 0.5702915 -0.0117543
vn -0.167702 -0.1584316 -0.9730239
vn -0.7375246 0.6631039 0.1278697
vn 0.2555225 0.1901154 0.9479263
vn 0.460274 0.8865825 -0.04603708
vn -0.4602904 -0.886579 0.04594064
vn 0.9607995 -0.2330317 -0.1502019
vn -0.03225075 0.2399493 -0.9702495
vn -0.460276 -0.8865818 0.04602837
vn -0.5416723 -0.7366994 0.4048024
vn -0.229213 0.5353706 0.8129205
vn -0.9468647 0.2821315 -0.1544313
vn 0.9468607 -0.2821477 0.1544263
vn 0.08236057 0.8735521 -0.4797119
vn -0.230083 -0.3985177 -0.8878318
vn 0.90399 0.3483595 -0.2478865
vn 0.1071253 0.5016919 0.8583877
vn 0.631474 -0.5632213 0.5329375
vn -0.631502 0.5631721 -0.5329562
vn -0.5976897 -0.6215564 0.5063937
vn -0.6314477 0.5632071 -0.5329835
vn 0.1991871 -0.7749006 -0.5998781
vn 0.2642097 -0.9142357 0.3071909
vn 0.4987986 0.3467398 0.7943371
vn -0.6117384 -0.183455 0.7694936
vn 0.611706 0.1834699 -0.7695159
vn -0.5609289 0.8252237 0.06606465
vn 0.611679 0.1835266 -0.7695237
vn -0.7955151 -0.4357187 -0.421076
vn -0.742916 0.6621851 0.09791097
vn 0.3049631 0.2971928 0.9048061
vn 0.4380608 0.8828093 -0.1695596
vn -0.4380614 -0.8828098 0.1695556
vn 0.9554101 -0.2339524 -0.1801608
vn -0.09247372 0.1310306 -0.987056
vn -0.9842289 -0.1238093 0.1263515
vn 0.02263141 0.3137046 0.9492509
vn -0.3687108 0.9285681 -0.04258566
vn 0.3686883 -0.9285759 0.04261097
vn 0.8053706 0.5742528 -0.1470097
vn -0.201483 0.1367204 -0.9699031
vn 0.2920124 -0.8965985 0.3329262
vn -0.06611101 0.2695881 0.9607037
vn -0.8465312 -0.4293626 0.3146946
vn 0.846543 0.4293557 -0.3146724
vn -0.702639 0.6883299 -0.1802783
vn -0.3445177 -0.477861 -0.8080572

usemtl GlowingThorn
f 1/1/1 2/2/2 3/3/3
f 4/1/4 2/5/4 1/4/4
f 2/1/2 5/2/5 3/3/3
f 4/1/4 5/6/4 2/5/4
f 5/1/5 6/2/6 3/3/3
f 4/1/4 6/7/4 5/6/4
f 6/1/6 1/2/1 3/3/3
f 4/1/4 1/4/4 6/7/4
f 57/1/51 58/2/52 59/3/53
f 60/152/54 58/151/54 57/150/54
f 58/1/52 61/2/55 59/3/53
f 60/155/54 61/154/54 58/153/54
f 61/1/55 62/2/56 59/3/53
f 60/158/54 62/157/54 61/156/54
f 62/1/56 57/2/51 59/3/53
f 60/161/54 57/160/54 62/159/54
f 63/1/57 64/2/58 65/3/59
f 66/1/60 64/163/60 63/162/60
f 64/1/58 67/2/61 65/3/59
f 66/1/60 67/164/60 64/163/60
f 67/1/61 68/2/62 65/3/59
f 66/1/60 68/13/60 67/164/60
f 68/1/62 63/2/57 65/3/59
f 66/1/60 63/162/60 68/13/60
f 69/1/63 70/2/64 71/3/65
f 72/167/66 70/166/66 69/165/66
f 70/1/64 73/2/67 71/3/65
f 72/170/66 73/169/66 70/168/66
f 73/1/67 74/2/68 71/3/65
f 72/173/66 74/172/66 73/171/66
f 74/1/68 69/2/63 71/3/65
f 72/176/66 69/175/66 74/174/66
f 75/1/69 76/2/70 77/3/71
f 78/1/72 76/163/72 75/162/72
f 76/1/70 79/2/73 77/3/71
f 78/1/72 79/164/72 76/163/72
f 79/1/73 80/2/74 77/3/71
f 78/1/72 80/13/72 79/164/72
f 80/1/74 75/2/69 77/3/71
f 78/1/72 75/162/72 80/13/72
f 81/1/75 82/2/76 83/3/77
f 84/179/78 82/178/78 81/177/78
f 82/1/76 85/2/79 83/3/77
f 84/182/78 85/181/78 82/180/78
f 85/1/79 86/2/80 83/3/77
f 84/185/78 86/184/78 85/183/78
f 86/1/80 81/2/75 83/3/77
f 84/188/78 81/187/78 86/186/78
f 87/1/81 88/2/82 89/3/83
f 90/1/84 88/163/84 87/162/84
f 88/1/82 91/2/85 89/3/83
f 90/1/84 91/164/84 88/163/84
f 91/1/85 92/2/86 89/3/83
f 90/1/84 92/13/84 91/164/84
f 92/1/86 87/2/81 89/3/83
f 90/1/84 87/162/84 92/13/84
f 93/1/87 94/2/88 95/3/89
f 96/1/90 94/163/90 93/162/90
f 94/1/88 97/2/91 95/3/89
f 96/1/90 97/164/90 94/163/90
f 97/1/91 98/2/92 95/3/89
f 96/1/93 98/13/93 97/164/93
f 98/1/92 93/2/87 95/3/89
f 96/1/93 93/162/93 98/13/93
f 99/1/94 100/2/95 101/3/96
f 102/179/97 100/178/97 99/177/97
f 100/1/95 103/2/98 101/3/96
f 102/182/97 103/181/97 100/180/97
f 103/1/98 104/2/99 101/3/96
f 102/185/97 104/184/97 103/183/97
f 104/1/99 99/2/94 101/3/96
f 102/188/97 99/187/97 104/186/97
f 105/1/100 106/2/101 107/3/102
f 108/179/103 106/178/103 105/177/103
f 106/1/101 109/2/104 107/3/102
f 108/182/105 109/181/105 106/180/105
f 109/1/104 110/2/106 107/3/102
f 108/185/105 110/184/105 109/183/105
f 110/1/106 105/2/100 107/3/102
f 108/188/103 105/187/103 110/186/103
f 111/1/107 112/2/108 113/3/109
f 114/191/110 112/190/110 111/189/110
f 112/1/108 115/2/111 113/3/109
f 114/194/112 115/193/112 112/192/112
f 115/1/111 116/2/113 113/3/109
f 114/197/112 116/196/112 115/195/112
f 116/1/113 111/2/107 113/3/109
f 114/200/110 111/199/110 116/198/110
f 117/1/114 118/2/115 119/3/116
f 120/1/117 118/163/117 117/162/117
f 118/1/115 121/2/118 119/3/116
f 120/1/117 121/164/117 118/163/117
f 121/1/118 122/2/119 119/3/116
f 120/1/117 122/13/117 121/164/117
f 122/1/119 117/2/114 119/3/116
f 120/1/117 117/162/117 122/13/117
f 123/1/120 124/2/121 125/3/122
f 126/1/123 124/163/123 123/162/123
f 124/1/121 127/2/124 125/3/122
f 126/1/123 127/164/123 124/163/123
f 127/1/124 128/2/125 125/3/122
f 126/1/123 128/13/123 127/164/123
f 128/1/125 123/2/120 125/3/122
f 126/1/123 123/162/123 128/13/123
f 129/1/126 130/2/127 131/3/128
f 132/191/129 130/190/129 129/189/129
f 130/1/127 133/2/130 131/3/128
f 132/194/129 133/193/129 130/192/129
f 133/1/130 134/2/131 131/3/128
f 132/197/129 134/196/129 133/195/129
f 134/1/131 129/2/126 131/3/128
f 132/200/129 129/199/129 134/198/129

usemtl Wood
f 32/24/14 31/13/14 30/23/14
f 30/23/14 31/13/14 28/21/14
f 28/21/14 31/13/14 26/19/14
f 23/16/14 31/13/14 22/15/14
f 26/19/14 31/13/14 23/16/14
f 22/15/14 31/13/14 32/24/14
f 19/12/13 20/13/13 21/14/13
f 29/22/13 20/13/13 19/12/13
f 27/20/13 20/13/13 29/22/13
f 25/18/13 20/13/13 27/20/13
f 24/17/13 20/13/13 25/18/13
f 21/14/13 20/13/13 24/17/13
f 10/11/8 8/9/7 7/8/7
f 7/8/7 9/10/8 10/11/8
f 12/11/9 10/9/8 9/8/8
f 9/8/8 11/10/9 12/11/9
f 14/11/10 12/9/9 11/8/9
f 11/8/9 13/10/10 14/11/10
f 16/11/11 14/9/10 13/8/10
f 13/8/10 15/10/11 16/11/11
f 18/11/12 16/9/11 15/8/11
f 15/8/11 17/10/12 18/11/12
f 8/11/7 18/9/12 17/8/12
f 17/8/12 7/10/7 8/11/7
f 34/28/15 18/26/15 8/25/15
f 8/25/15 33/27/15 34/28/15
f 35/32/16 16/30/16 18/29/16
f 18/29/16 34/31/16 35/32/16
f 36/36/17 14/34/17 16/33/17
f 16/33/17 35/35/17 36/36/17
f 38/38/18 10/9/18 12/11/18
f 12/11/18 37/37/18 38/38/18
f 37/41/19 12/34/19 14/39/19
f 14/39/19 36/40/19 37/41/19
f 33/43/20 8/26/20 10/25/20
f 10/25/20 38/42/20 33/43/20
f 40/47/21 34/45/21 33/44/21
f 33/44/21 39/46/21 40/47/21
f 41/49/22 35/32/22 34/31/22
f 34/31/22 40/48/22 41/49/22
f 42/53/23 36/51/23 35/50/23
f 35/50/23 41/52/23 42/53/23
f 44/57/24 38/55/24 37/54/24
f 37/54/24 43/56/24 44/57/24
f 43/61/25 37/59/25 36/58/25
f 36/58/25 42/60/25 43/61/25
f 39/65/26 33/63/26 38/62/26
f 38/62/26 44/64/26 39/65/26
f 30/69/27 40/67/27 39/66/27
f 39/66/27 32/68/27 30/69/27
f 28/73/28 41/71/28 40/70/28
f 40/70/28 30/72/28 28/73/28
f 26/77/29 42/75/29 41/74/29
f 41/74/29 28/76/29 26/77/29
f 22/81/30 44/79/30 43/78/30
f 43/78/30 23/80/30 22/81/30
f 23/85/31 43/83/31 42/82/31
f 42/82/31 26/84/31 23/85/31
f 32/87/32 39/65/32 44/64/32
f 44/64/32 22/86/32 32/87/32
f 46/91/33 9/89/33 7/88/33
f 7/88/33 45/90/33 46/91/33
f 45/93/34 7/89/34 17/88/34
f 17/88/34 47/92/34 45/93/34
f 47/97/35 17/95/35 15/94/35
f 15/94/35 48/96/35 47/97/35
f 48/101/36 15/99/36 13/98/36
f 13/98/36 49/100/36 48/101/36
f 49/105/37 13/103/37 11/102/37
f 11/102/37 50/104/37 49/105/37
f 50/107/38 11/10/38 9/8/38
f 9/8/38 46/106/38 50/107/38
f 52/111/39 46/109/39 45/108/39
f 45/108/39 51/110/39 52/111/39
f 51/115/40 45/113/40 47/112/40
f 47/112/40 53/114/40 51/115/40
f 53/117/41 47/97/41 48/96/41
f 48/96/41 54/116/41 53/117/41
f 54/121/42 48/119/42 49/118/42
f 49/118/42 55/120/42 54/121/42
f 55/125/43 49/123/43 50/122/43
f 50/122/43 56/124/43 55/125/43
f 56/127/44 50/107/44 46/106/44
f 46/106/44 52/126/44 56/127/44
f 21/131/45 52/129/45 51/128/45
f 51/128/45 19/130/45 21/131/45
f 19/135/46 51/133/46 53/132/46
f 53/132/46 29/134/46 19/135/46
f 29/139/47 53/137/47 54/136/47
f 54/136/47 27/138/47 29/139/47
f 27/143/48 54/141/48 55/140/48
f 55/140/48 25/142/48 27/143/48
f 25/145/49 55/144/49 56/133/49
f 56/133/49 24/135/49 25/145/49
f 24/149/50 56/147/50 52/146/50
f 52/146/50 21/148/50 24/149/50

